<svg width="960" height="100" viewBox="0 0 960 100" fill="none" xmlns="http://www.w3.org/2000/svg">
<g clip-path="url(#clip0_2_2)">
<path d="M960 0H0V100H960V0Z" fill="white"/>
<path d="M0 75H7.7C15.3 75 30.7 75 45.8 73.7C61 72.3 76 69.7 91.2 70C106.3 70.3 121.7 73.7 137 76C152.3 78.3 167.7 79.7 183 79C198.3 78.3 213.7 75.7 228.8 74.8C244 74 259 75 274.2 74C289.3 73 304.7 70 320 68.5C335.3 67 350.7 67 365.8 68.7C381 70.3 396 73.7 411.2 74C426.3 74.3 441.7 71.7 457 72.3C472.3 73 487.7 77 503 77.5C518.3 78 533.7 75 548.8 74.7C564 74.3 579 76.7 594.2 76.3C609.3 76 624.7 73 640 71.3C655.3 69.7 670.7 69.3 685.8 69.2C701 69 716 69 731.2 70.7C746.3 72.3 761.7 75.7 777 77.3C792.3 79 807.7 79 823 79C838.3 79 853.7 79 868.8 78C884 77 899 75 914.2 73C929.3 71 944.7 69 952.3 68L960 67V101H952.3C944.7 101 929.3 101 914.2 101C899 101 884 101 868.8 101C853.7 101 838.3 101 823 101C807.7 101 792.3 101 777 101C761.7 101 746.3 101 731.2 101C716 101 701 101 685.8 101C670.7 101 655.3 101 640 101C624.7 101 609.3 101 594.2 101C579 101 564 101 548.8 101C533.7 101 518.3 101 503 101C487.7 101 472.3 101 457 101C441.7 101 426.3 101 411.2 101C396 101 381 101 365.8 101C350.7 101 335.3 101 320 101C304.7 101 289.3 101 274.2 101C259 101 244 101 228.8 101C213.7 101 198.3 101 183 101C167.7 101 152.3 101 137 101C121.7 101 106.3 101 91.2 101C76 101 61 101 45.8 101C30.7 101 15.3 101 7.7 101H0V75Z" fill="#0D0C0E"/>
<path d="M343.151 55V20.0909H350.532V34.4943H365.515V20.0909H372.879V55H365.515V40.5795H350.532V55H343.151ZM378.827 55V28.8182H386.089V55H378.827ZM382.475 25.4432C381.396 25.4432 380.469 25.0852 379.697 24.3693C378.935 23.642 378.555 22.7727 378.555 21.7614C378.555 20.7614 378.935 19.9034 379.697 19.1875C380.469 18.4602 381.396 18.0966 382.475 18.0966C383.555 18.0966 384.475 18.4602 385.237 19.1875C386.009 19.9034 386.396 20.7614 386.396 21.7614C386.396 22.7727 386.009 23.642 385.237 24.3693C384.475 25.0852 383.555 25.4432 382.475 25.4432ZM416.941 28.8182V34.2727H401.174V28.8182H416.941ZM404.754 22.5455H412.015V46.9545C412.015 47.625 412.117 48.1477 412.322 48.5227C412.526 48.8864 412.81 49.142 413.174 49.2898C413.549 49.4375 413.981 49.5114 414.469 49.5114C414.81 49.5114 415.151 49.483 415.492 49.4261C415.833 49.358 416.094 49.3068 416.276 49.2727L417.418 54.6761C417.055 54.7898 416.543 54.9205 415.884 55.0682C415.225 55.2273 414.424 55.3239 413.481 55.358C411.731 55.4261 410.197 55.1932 408.879 54.6591C407.572 54.125 406.555 53.2955 405.827 52.1705C405.1 51.0455 404.742 49.625 404.754 47.9091V22.5455ZM429.495 39.8636V55H422.234V20.0909H429.29V33.4375H429.597C430.188 31.892 431.143 30.6818 432.461 29.8068C433.779 28.9205 435.433 28.4773 437.421 28.4773C439.239 28.4773 440.825 28.875 442.177 29.6705C443.54 30.4545 444.597 31.5852 445.347 33.0625C446.109 34.5284 446.484 36.2841 446.472 38.3295V55H439.211V39.625C439.222 38.0114 438.813 36.7557 437.984 35.858C437.165 34.9602 436.018 34.5114 434.54 34.5114C433.552 34.5114 432.677 34.7216 431.915 35.142C431.165 35.5625 430.575 36.1761 430.143 36.983C429.722 37.7784 429.506 38.7386 429.495 39.8636ZM464.119 55.5114C461.425 55.5114 459.107 54.9659 457.164 53.875C455.232 52.7727 453.744 51.2159 452.698 49.2045C451.653 47.1818 451.13 44.7898 451.13 42.0284C451.13 39.3352 451.653 36.9716 452.698 34.9375C453.744 32.9034 455.215 31.3182 457.113 30.1818C459.022 29.0455 461.261 28.4773 463.829 28.4773C465.556 28.4773 467.164 28.7557 468.653 29.3125C470.153 29.858 471.46 30.6818 472.573 31.7841C473.698 32.8864 474.573 34.2727 475.198 35.9432C475.823 37.6023 476.136 39.5455 476.136 41.7727V43.767H454.028V39.267H469.3C469.3 38.2216 469.073 37.2955 468.619 36.4886C468.164 35.6818 467.533 35.0511 466.727 34.5966C465.931 34.1307 465.005 33.8977 463.948 33.8977C462.846 33.8977 461.869 34.1534 461.016 34.6648C460.175 35.1648 459.516 35.8409 459.039 36.6932C458.562 37.5341 458.317 38.4716 458.306 39.5057V43.7841C458.306 45.0795 458.545 46.1989 459.022 47.142C459.511 48.0852 460.198 48.8125 461.085 49.3239C461.971 49.8352 463.022 50.0909 464.238 50.0909C465.045 50.0909 465.783 49.9773 466.454 49.75C467.124 49.5227 467.698 49.1818 468.175 48.7273C468.653 48.2727 469.016 47.7159 469.266 47.0568L475.982 47.5C475.641 49.1136 474.942 50.5227 473.886 51.7273C472.84 52.9205 471.488 53.8523 469.829 54.5227C468.181 55.1818 466.278 55.5114 464.119 55.5114ZM480.874 55V28.8182H487.914V33.3864H488.187C488.664 31.7614 489.465 30.5341 490.59 29.7045C491.715 28.8636 493.011 28.4432 494.477 28.4432C494.84 28.4432 495.232 28.4659 495.653 28.5114C496.073 28.5568 496.442 28.6193 496.761 28.6989V35.142C496.42 35.0398 495.948 34.9489 495.346 34.8693C494.744 34.7898 494.192 34.75 493.692 34.75C492.624 34.75 491.67 34.983 490.829 35.4489C489.999 35.9034 489.34 36.5398 488.852 37.358C488.374 38.1761 488.136 39.1193 488.136 40.1875V55H480.874ZM511.228 55.5114C508.535 55.5114 506.217 54.9659 504.273 53.875C502.342 52.7727 500.853 51.2159 499.808 49.2045C498.762 47.1818 498.239 44.7898 498.239 42.0284C498.239 39.3352 498.762 36.9716 499.808 34.9375C500.853 32.9034 502.325 31.3182 504.222 30.1818C506.131 29.0455 508.37 28.4773 510.938 28.4773C512.665 28.4773 514.273 28.7557 515.762 29.3125C517.262 29.858 518.569 30.6818 519.683 31.7841C520.808 32.8864 521.683 34.2727 522.308 35.9432C522.933 37.6023 523.245 39.5455 523.245 41.7727V43.767H501.137V39.267H516.41C516.41 38.2216 516.183 37.2955 515.728 36.4886C515.273 35.6818 514.643 35.0511 513.836 34.5966C513.04 34.1307 512.114 33.8977 511.058 33.8977C509.955 33.8977 508.978 34.1534 508.126 34.6648C507.285 35.1648 506.626 35.8409 506.148 36.6932C505.671 37.5341 505.427 38.4716 505.415 39.5057V43.7841C505.415 45.0795 505.654 46.1989 506.131 47.142C506.62 48.0852 507.308 48.8125 508.194 49.3239C509.08 49.8352 510.131 50.0909 511.347 50.0909C512.154 50.0909 512.893 49.9773 513.563 49.75C514.234 49.5227 514.808 49.1818 515.285 48.7273C515.762 48.2727 516.126 47.7159 516.376 47.0568L523.092 47.5C522.751 49.1136 522.052 50.5227 520.995 51.7273C519.95 52.9205 518.597 53.8523 516.938 54.5227C515.29 55.1818 513.387 55.5114 511.228 55.5114ZM536.66 20.0909L535.995 44.5341H529.756L529.075 20.0909H536.66ZM532.876 55.4432C531.751 55.4432 530.785 55.0455 529.978 54.25C529.171 53.4432 528.773 52.4773 528.785 51.3523C528.773 50.2386 529.171 49.2841 529.978 48.4886C530.785 47.6932 531.751 47.2955 532.876 47.2955C533.955 47.2955 534.904 47.6932 535.722 48.4886C536.54 49.2841 536.955 50.2386 536.967 51.3523C536.955 52.1023 536.756 52.7898 536.37 53.4148C535.995 54.0284 535.501 54.5227 534.887 54.8977C534.273 55.2614 533.603 55.4432 532.876 55.4432ZM562.173 20.0909V55H554.792V20.0909H562.173ZM574.194 20.0909V23.7727C574.194 24.8182 573.989 25.8864 573.58 26.9773C573.183 28.0568 572.648 29.0795 571.978 30.0455C571.308 31 570.575 31.8125 569.779 32.483L566.575 30.5909C567.143 29.6932 567.643 28.6989 568.075 27.608C568.518 26.517 568.739 25.25 568.739 23.8068V20.0909H574.194ZM577.999 55V28.8182H584.92V33.4375H585.227C585.772 31.9034 586.681 30.6932 587.954 29.8068C589.227 28.9205 590.749 28.4773 592.522 28.4773C594.317 28.4773 595.846 28.9261 597.107 29.8239C598.369 30.7102 599.21 31.9148 599.63 33.4375H599.903C600.437 31.9375 601.403 30.7386 602.8 29.8409C604.21 28.9318 605.874 28.4773 607.795 28.4773C610.238 28.4773 612.221 29.2557 613.744 30.8125C615.278 32.358 616.045 34.5511 616.045 37.392V55H608.8V38.8239C608.8 37.3693 608.414 36.2784 607.641 35.5511C606.869 34.8239 605.903 34.4602 604.744 34.4602C603.425 34.4602 602.397 34.8807 601.658 35.7216C600.92 36.5511 600.55 37.6477 600.55 39.0114V55H593.511V38.6705C593.511 37.3864 593.141 36.3636 592.403 35.6023C591.675 34.8409 590.715 34.4602 589.522 34.4602C588.715 34.4602 587.988 34.6648 587.34 35.0739C586.704 35.4716 586.198 36.0341 585.823 36.7614C585.448 37.4773 585.261 38.3182 585.261 39.2841V55H577.999Z" fill="#0D0C0E"/>
</g>
<defs>
<clipPath id="clip0_2_2">
<rect width="960" height="100" fill="white"/>
</clipPath>
</defs>
</svg>
