<svg id="visual" viewBox="0 0 960 100" width="960" height="100" xmlns="http://www.w3.org/2000/svg" xmlns:xlink="http://www.w3.org/1999/xlink" version="1.1"><rect x="0" y="0" width="960" height="100" fill="#ffffff"></rect><path d="M0 75L7.7 75C15.3 75 30.7 75 45.8 73.7C61 72.3 76 69.7 91.2 70C106.3 70.3 121.7 73.7 137 76C152.3 78.3 167.7 79.7 183 79C198.3 78.3 213.7 75.7 228.8 74.8C244 74 259 75 274.2 74C289.3 73 304.7 70 320 68.5C335.3 67 350.7 67 365.8 68.7C381 70.3 396 73.7 411.2 74C426.3 74.3 441.7 71.7 457 72.3C472.3 73 487.7 77 503 77.5C518.3 78 533.7 75 548.8 74.7C564 74.3 579 76.7 594.2 76.3C609.3 76 624.7 73 640 71.3C655.3 69.7 670.7 69.3 685.8 69.2C701 69 716 69 731.2 70.7C746.3 72.3 761.7 75.7 777 77.3C792.3 79 807.7 79 823 79C838.3 79 853.7 79 868.8 78C884 77 899 75 914.2 73C929.3 71 944.7 69 952.3 68L960 67L960 101L952.3 101C944.7 101 929.3 101 914.2 101C899 101 884 101 868.8 101C853.7 101 838.3 101 823 101C807.7 101 792.3 101 777 101C761.7 101 746.3 101 731.2 101C716 101 701 101 685.8 101C670.7 101 655.3 101 640 101C624.7 101 609.3 101 594.2 101C579 101 564 101 548.8 101C533.7 101 518.3 101 503 101C487.7 101 472.3 101 457 101C441.7 101 426.3 101 411.2 101C396 101 381 101 365.8 101C350.7 101 335.3 101 320 101C304.7 101 289.3 101 274.2 101C259 101 244 101 228.8 101C213.7 101 198.3 101 183 101C167.7 101 152.3 101 137 101C121.7 101 106.3 101 91.2 101C76 101 61 101 45.8 101C30.7 101 15.3 101 7.7 101L0 101Z" fill="#0d0c0e" stroke-linecap="round" stroke-linejoin="miter"></path></svg>