<svg id="visual" viewBox="0 0 960 540" width="960" height="540" xmlns="http://www.w3.org/2000/svg" xmlns:xlink="http://www.w3.org/1999/xlink" version="1.1"><rect x="0" y="0" width="960" height="540" fill="#ffffff"></rect><path d="M0 404L7.7 403.8C15.3 403.7 30.7 403.3 45.8 399.2C61 395 76 387 91.2 385.8C106.3 384.7 121.7 390.3 137 394.5C152.3 398.7 167.7 401.3 183 403.7C198.3 406 213.7 408 228.8 403.5C244 399 259 388 274.2 385.3C289.3 382.7 304.7 388.3 320 393.5C335.3 398.7 350.7 403.3 365.8 404.7C381 406 396 404 411.2 405.7C426.3 407.3 441.7 412.7 457 414.5C472.3 416.3 487.7 414.7 503 414C518.3 413.3 533.7 413.7 548.8 409.5C564 405.3 579 396.7 594.2 396.5C609.3 396.3 624.7 404.7 640 403.2C655.3 401.7 670.7 390.3 685.8 388.8C701 387.3 716 395.7 731.2 402.2C746.3 408.7 761.7 413.3 777 412.5C792.3 411.7 807.7 405.3 823 401.5C838.3 397.7 853.7 396.3 868.8 397.2C884 398 899 401 914.2 404.2C929.3 407.3 944.7 410.7 952.3 412.3L960 414L960 541L952.3 541C944.7 541 929.3 541 914.2 541C899 541 884 541 868.8 541C853.7 541 838.3 541 823 541C807.7 541 792.3 541 777 541C761.7 541 746.3 541 731.2 541C716 541 701 541 685.8 541C670.7 541 655.3 541 640 541C624.7 541 609.3 541 594.2 541C579 541 564 541 548.8 541C533.7 541 518.3 541 503 541C487.7 541 472.3 541 457 541C441.7 541 426.3 541 411.2 541C396 541 381 541 365.8 541C350.7 541 335.3 541 320 541C304.7 541 289.3 541 274.2 541C259 541 244 541 228.8 541C213.7 541 198.3 541 183 541C167.7 541 152.3 541 137 541C121.7 541 106.3 541 91.2 541C76 541 61 541 45.8 541C30.7 541 15.3 541 7.7 541L0 541Z" fill="#0d0c0e" stroke-linecap="round" stroke-linejoin="miter"></path></svg>